# Blender 4.1.0
# www.blender.org
o King
v -0.016813 1.829183 0.029608
v -0.016813 2.000096 0.029608
v -0.016813 1.829183 -0.029608
v -0.016813 2.000096 -0.029608
v 0.016813 1.885031 -0.085457
v 0.016813 1.885031 0.085456
v 0.016813 1.829183 0.029608
v 0.016813 2.000096 0.029608
v 0.016813 1.944248 -0.085457
v 0.016813 1.944248 0.085456
v -0.016813 1.885031 -0.085457
v -0.016813 1.885031 0.085456
v 0.016813 1.829183 -0.029608
v -0.016813 1.944248 -0.085457
v -0.016813 1.944248 0.085456
v 0.016813 2.000096 -0.029608
v 0.000000 0.000000 0.000000
v 0.000000 1.836858 0.000000
v 0.000000 0.000000 -0.424766
v 0.000000 1.836858 -0.066606
v 0.212383 0.000000 -0.367858
v 0.033303 1.836858 -0.057682
v 0.367858 0.000000 -0.212383
v 0.057682 1.836858 -0.033303
v 0.424766 0.000000 0.000000
v 0.066606 1.836858 0.000000
v 0.367858 0.000000 0.212383
v 0.057682 1.836858 0.033303
v 0.212383 0.000000 0.367858
v 0.033303 1.836858 0.057682
v 0.000000 0.000000 0.424766
v 0.000000 1.836858 0.066606
v -0.212383 0.000000 0.367858
v -0.033303 1.836858 0.057682
v -0.367858 0.000000 0.212383
v -0.057682 1.836858 0.033303
v -0.424766 0.000000 0.000000
v -0.066606 1.836858 0.000000
v -0.367858 0.000000 -0.212383
v -0.057682 1.836858 -0.033303
v -0.212383 0.000000 -0.367858
v -0.033303 1.836858 -0.057682
v 0.000000 0.133501 -0.352187
v 0.176093 0.133501 -0.305002
v 0.305002 0.133501 -0.176093
v 0.352187 0.133501 0.000000
v 0.305002 0.133501 0.176093
v 0.176093 0.133501 0.305002
v 0.000000 0.133501 0.352187
v -0.176093 0.133501 0.305002
v -0.305002 0.133501 0.176093
v -0.352187 0.133501 0.000000
v -0.305002 0.133501 -0.176093
v -0.176093 0.133501 -0.305002
v 0.000000 0.296438 -0.408722
v 0.204361 0.296438 -0.353964
v 0.353964 0.296438 -0.204361
v 0.408722 0.296438 0.000000
v 0.353964 0.296438 0.204361
v 0.204361 0.296438 0.353964
v 0.000000 0.296438 0.408722
v -0.204361 0.296438 0.353964
v -0.353964 0.296438 0.204361
v -0.408722 0.296438 0.000000
v -0.353964 0.296438 -0.204361
v -0.204361 0.296438 -0.353964
v 0.000000 0.521037 -0.214665
v 0.107333 0.521037 -0.185906
v 0.185906 0.521037 -0.107333
v 0.214665 0.521037 0.000000
v 0.185906 0.521037 0.107333
v 0.107333 0.521037 0.185906
v 0.000000 0.521037 0.214665
v -0.107333 0.521037 0.185906
v -0.185906 0.521037 0.107333
v -0.214665 0.521037 0.000000
v -0.185906 0.521037 -0.107333
v -0.107333 0.521037 -0.185906
v 0.000000 0.913026 -0.140110
v 0.070055 0.913026 -0.121339
v 0.121339 0.913026 -0.070055
v 0.140110 0.913026 0.000000
v 0.121339 0.913026 0.070055
v 0.070055 0.913026 0.121339
v 0.000000 0.913026 0.140110
v -0.070055 0.913026 0.121339
v -0.121339 0.913026 0.070055
v -0.140110 0.913026 0.000000
v -0.121339 0.913026 -0.070055
v -0.070055 0.913026 -0.121339
v 0.000000 1.242925 -0.163534
v 0.081767 1.242925 -0.141625
v 0.141625 1.242925 -0.081767
v 0.163534 1.242925 0.000000
v 0.141625 1.242925 0.081767
v 0.081767 1.242925 0.141625
v 0.000000 1.242925 0.163534
v -0.081767 1.242925 0.141625
v -0.141625 1.242925 0.081767
v -0.163534 1.242925 0.000000
v -0.141625 1.242925 -0.081767
v -0.081767 1.242925 -0.141625
v 0.000000 1.283104 -0.284134
v 0.142067 1.283104 -0.246067
v 0.246067 1.283104 -0.142067
v 0.284134 1.283104 0.000000
v 0.246067 1.283104 0.142067
v 0.142067 1.283104 0.246067
v 0.000000 1.283104 0.284134
v -0.142067 1.283104 0.246067
v -0.246067 1.283104 0.142067
v -0.284134 1.283104 0.000000
v -0.246067 1.283104 -0.142067
v -0.142067 1.283104 -0.246067
v 0.000000 1.334008 -0.278064
v 0.139032 1.334008 -0.240811
v 0.240811 1.334008 -0.139032
v 0.278064 1.334008 0.000000
v 0.240811 1.334008 0.139032
v 0.139032 1.334008 0.240811
v 0.000000 1.334008 0.278064
v -0.139032 1.334008 0.240811
v -0.240811 1.334008 0.139032
v -0.278064 1.334008 0.000000
v -0.240811 1.334008 -0.139032
v -0.139032 1.334008 -0.240811
v 0.000000 1.391275 -0.173972
v 0.086986 1.391275 -0.150664
v 0.150664 1.391275 -0.086986
v 0.173972 1.391275 0.000000
v 0.150664 1.391275 0.086986
v 0.086986 1.391275 0.150664
v 0.000000 1.391275 0.173972
v -0.086986 1.391275 0.150664
v -0.150664 1.391275 0.086986
v -0.173972 1.391275 0.000000
v -0.150664 1.391275 -0.086986
v -0.086986 1.391275 -0.150664
v 0.000000 1.779669 -0.072929
v 0.036465 1.779669 -0.063159
v 0.063159 1.779669 -0.036465
v 0.072929 1.779669 0.000000
v 0.063159 1.779669 0.036465
v 0.036465 1.779669 0.063159
v 0.000000 1.779669 0.072929
v -0.036465 1.779669 0.063159
v -0.063159 1.779669 0.036465
v -0.072929 1.779669 0.000000
v -0.063159 1.779669 -0.036465
v -0.036465 1.779669 -0.063159
v 0.132250 1.714255 -0.229063
v 0.229063 1.714255 -0.132250
v 0.264499 1.714255 -0.000000
v 0.229063 1.714255 0.132250
v 0.132250 1.714255 0.229063
v 0.000000 1.714255 0.264499
v -0.132250 1.714255 0.229063
v -0.229063 1.714255 0.132250
v -0.264499 1.714255 -0.000000
v -0.229063 1.714255 -0.132250
v -0.132250 1.714255 -0.229063
v 0.000000 1.714255 -0.264499
vn -0.0000 -0.0000 1.0000
vn 1.0000 -0.0000 -0.0000
vn -0.0000 1.0000 -0.0000
vn -1.0000 -0.0000 -0.0000
vn -0.0000 -0.0000 -1.0000
vn -0.0000 -1.0000 -0.0000
vn -0.0000 0.1099 -0.9939
vn 0.4970 0.1099 -0.8608
vn 0.8608 0.1099 -0.4970
vn 0.9939 0.1099 -0.0000
vn 0.8608 0.1099 0.4970
vn 0.4970 0.1099 0.8608
vn -0.0000 0.1099 0.9939
vn -0.4970 0.1099 0.8608
vn -0.8608 0.1099 0.4970
vn -0.9939 0.1099 -0.0000
vn -0.8608 0.1099 -0.4970
vn -0.4970 0.1099 -0.8608
vn -0.4393 0.4776 -0.7609
vn -0.0000 0.4776 -0.8786
vn -0.7608 0.4776 -0.4393
vn -0.7609 0.4776 -0.4393
vn -0.8786 0.4776 -0.0000
vn -0.7609 0.4776 0.4393
vn -0.7608 0.4776 0.4393
vn -0.4393 0.4776 0.7608
vn -0.4393 0.4776 0.7609
vn -0.0000 0.4776 0.8786
vn 0.4393 0.4776 0.7609
vn 0.7608 0.4776 0.4393
vn 0.7609 0.4776 0.4393
vn 0.8786 0.4776 -0.0000
vn 0.7609 0.4776 -0.4393
vn 0.7608 0.4776 -0.4393
vn 0.4393 0.4776 -0.7608
vn 0.4393 0.4776 -0.7609
vn -0.4724 -0.3278 -0.8182
vn -0.0000 -0.3278 -0.9447
vn -0.8182 -0.3278 -0.4724
vn -0.9447 -0.3278 -0.0000
vn -0.8182 -0.3278 0.4724
vn -0.4724 -0.3278 0.8182
vn -0.0000 -0.3278 0.9447
vn 0.4724 -0.3278 0.8182
vn 0.8182 -0.3278 0.4724
vn 0.9447 -0.3278 -0.0000
vn 0.8182 -0.3278 -0.4724
vn 0.4724 -0.3278 -0.8182
vn -0.3783 0.6538 -0.6553
vn -0.0000 0.4529 -0.8916
vn -0.0000 0.6538 -0.7567
vn -0.7721 0.4529 -0.4458
vn -0.6553 0.6538 -0.3783
vn -0.8916 0.4529 -0.0000
vn -0.7567 0.6538 -0.0000
vn -0.7721 0.4529 0.4458
vn -0.6553 0.6538 0.3783
vn -0.4458 0.4529 0.7721
vn -0.3783 0.6538 0.6553
vn -0.0000 0.4529 0.8916
vn -0.0000 0.6538 0.7567
vn 0.4458 0.4529 0.7721
vn 0.3783 0.6538 0.6553
vn 0.7721 0.4529 0.4458
vn 0.6553 0.6538 0.3783
vn 0.8916 0.4529 -0.0000
vn 0.7567 0.6538 -0.0000
vn 0.7721 0.4529 -0.4458
vn 0.6553 0.6538 -0.3783
vn 0.4458 0.4529 -0.7721
vn 0.3783 0.6538 -0.6553
vn -0.4458 0.4529 -0.7721
vn -0.0000 0.0598 -0.9982
vn -0.8645 0.0598 -0.4991
vn -0.9982 0.0598 -0.0000
vn -0.8645 0.0598 0.4991
vn -0.4991 0.0598 0.8645
vn -0.0000 0.0598 0.9982
vn 0.4991 0.0598 0.8645
vn 0.8645 0.0598 0.4991
vn 0.9982 0.0598 -0.0000
vn 0.8645 0.0598 -0.4991
vn 0.4991 0.0598 -0.8645
vn -0.4988 -0.0708 -0.8638
vn -0.4991 0.0598 -0.8645
vn -0.8639 -0.0708 -0.4987
vn -0.9975 -0.0708 -0.0000
vn -0.8638 -0.0708 0.4987
vn -0.4987 -0.0708 0.8639
vn -0.0000 -0.0708 0.9975
vn 0.4988 -0.0708 0.8638
vn 0.8639 -0.0708 0.4987
vn 0.9975 -0.0708 -0.0000
vn 0.8638 -0.0708 -0.4987
vn 0.4987 -0.0708 -0.8639
vn -0.0000 -0.0708 -0.9975
vn -0.1580 -0.9487 -0.2737
vn -0.0000 -0.9487 -0.3161
vn -0.2737 -0.9487 -0.1580
vn -0.3161 -0.9487 -0.0000
vn -0.2737 -0.9487 0.1580
vn -0.1580 -0.9487 0.2737
vn -0.0000 -0.9487 0.3161
vn 0.1580 -0.9487 0.2737
vn 0.2737 -0.9487 0.1580
vn 0.3161 -0.9487 -0.0000
vn 0.2737 -0.9487 -0.1580
vn 0.1580 -0.9487 -0.2737
vn -0.4965 0.1184 -0.8599
vn -0.0000 0.1184 -0.9930
vn -0.8599 0.1184 -0.4965
vn -0.9930 0.1184 -0.0000
vn -0.8599 0.1184 0.4965
vn -0.4965 0.1184 0.8599
vn -0.0000 0.1184 0.9930
vn 0.4965 0.1184 0.8599
vn 0.8599 0.1184 0.4965
vn 0.9930 0.1184 -0.0000
vn 0.8599 0.1184 -0.4965
vn 0.4965 0.1184 -0.8599
vn -0.2410 0.8762 -0.4174
vn -0.0000 0.8762 -0.4820
vn -0.4174 0.8762 -0.2410
vn -0.4820 0.8762 -0.0000
vn -0.4174 0.8762 0.2410
vn -0.2410 0.8762 0.4174
vn -0.0000 0.8762 0.4820
vn 0.2410 0.8762 0.4174
vn 0.4174 0.8762 0.2410
vn 0.4820 0.8762 -0.0000
vn 0.4174 0.8762 -0.2410
vn 0.2410 0.8762 -0.4174
vn -0.1616 0.9463 -0.2798
vn -0.0000 0.9464 -0.3231
vn -0.1616 0.9464 -0.2799
vn -0.2799 0.9464 -0.1616
vn -0.2798 0.9464 -0.1616
vn -0.3231 0.9464 -0.0000
vn -0.2798 0.9464 0.1616
vn -0.2799 0.9464 0.1616
vn -0.1616 0.9464 0.2798
vn -0.0000 0.9464 0.3231
vn 0.1616 0.9463 0.2798
vn 0.1616 0.9464 0.2799
vn 0.2799 0.9464 0.1616
vn 0.2798 0.9464 0.1616
vn 0.3231 0.9464 -0.0000
vn 0.2798 0.9464 -0.1616
vn 0.2799 0.9464 -0.1616
vn 0.1616 0.9464 -0.2798
vn -0.0000 -0.2699 -0.9629
vn 0.4814 -0.2699 -0.8339
vn 0.8339 -0.2699 -0.4814
vn 0.8339 -0.2699 -0.4815
vn 0.9629 -0.2699 -0.0000
vn 0.8339 -0.2699 0.4814
vn 0.4814 -0.2699 0.8339
vn 0.4815 -0.2699 0.8339
vn -0.0000 -0.2699 0.9629
vn -0.4814 -0.2699 0.8339
vn -0.8339 -0.2699 0.4814
vn -0.8339 -0.2699 0.4815
vn -0.9629 -0.2699 -0.0000
vn -0.8339 -0.2699 -0.4814
vn -0.4814 -0.2699 -0.8339
vn -0.4815 -0.2699 -0.8339
vt 0.625000 0.780979
vt 0.375000 0.969020
vt 0.375000 0.768309
vt 0.655979 0.519701
vt 0.344021 0.730299
vt 0.344021 0.519701
vt 0.844021 0.519701
vt 0.655979 0.730299
vt 0.625000 0.019701
vt 0.375000 0.242969
vt 0.375000 0.014776
vt 0.625000 0.280979
vt 0.375000 0.481691
vt 0.375000 0.268309
vt 0.155979 0.730299
vt 0.155979 0.519701
vt 0.750000 0.250000
vt 0.750000 0.490000
vt 0.870000 0.457846
vt 0.250000 0.250000
vt 0.370000 0.457846
vt 0.250000 0.490000
vt 1.000000 1.000000
vt 0.916667 0.980468
vt 1.000000 0.980468
vt 0.957846 0.370000
vt 0.457846 0.370000
vt 0.916667 1.000000
vt 0.833333 0.980468
vt 0.990000 0.250000
vt 0.490000 0.250000
vt 0.833333 1.000000
vt 0.750000 0.980468
vt 0.957846 0.130000
vt 0.457846 0.130000
vt 0.750000 1.000000
vt 0.666667 0.980468
vt 0.870000 0.042154
vt 0.370000 0.042154
vt 0.666667 1.000000
vt 0.583333 0.980468
vt 0.750000 0.010000
vt 0.250000 0.010000
vt 0.583333 1.000000
vt 0.500000 0.980468
vt 0.630000 0.042154
vt 0.130000 0.042154
vt 0.500000 1.000000
vt 0.416667 0.980468
vt 0.542154 0.130000
vt 0.042154 0.130000
vt 0.416667 1.000000
vt 0.333333 0.980468
vt 0.510000 0.250000
vt 0.010000 0.250000
vt 0.333333 1.000000
vt 0.250000 0.980468
vt 0.542154 0.370000
vt 0.042154 0.370000
vt 0.250000 1.000000
vt 0.166667 0.980468
vt 0.630000 0.457846
vt 0.130000 0.457846
vt 0.166667 1.000000
vt 0.083333 0.980468
vt 0.083333 1.000000
vt 0.000000 0.980468
vt 0.083333 0.536547
vt 0.000000 0.500000
vt 0.083333 0.500000
vt 0.166667 0.536547
vt 0.166667 0.500000
vt 0.250000 0.536547
vt 0.250000 0.500000
vt 0.333333 0.536547
vt 0.333333 0.500000
vt 0.416667 0.536547
vt 0.416667 0.500000
vt 0.500000 0.536547
vt 0.500000 0.500000
vt 0.583333 0.536547
vt 0.583333 0.500000
vt 0.666667 0.536547
vt 0.666667 0.500000
vt 0.750000 0.536547
vt 0.750000 0.500000
vt 0.833333 0.536547
vt 0.833333 0.500000
vt 0.916667 0.536547
vt 0.916667 0.500000
vt 1.000000 0.536547
vt 1.000000 0.500000
vt 0.083333 0.574110
vt 0.000000 0.536547
vt 0.166667 0.574110
vt 0.250000 0.574110
vt 0.333333 0.574110
vt 0.416667 0.574110
vt 0.500000 0.574110
vt 0.583333 0.574110
vt 0.666667 0.574110
vt 0.750000 0.574110
vt 0.833333 0.574110
vt 0.916667 0.574110
vt 1.000000 0.574110
vt 0.000000 0.630259
vt 0.000000 0.574110
vt 0.166667 0.630259
vt 0.250000 0.630259
vt 0.333333 0.630259
vt 0.416667 0.630259
vt 0.500000 0.630259
vt 0.583333 0.630259
vt 0.666667 0.630259
vt 0.750000 0.630259
vt 0.833333 0.630259
vt 0.916667 0.630259
vt 1.000000 0.630259
vt 0.083333 0.630259
vt 0.000000 0.728256
vt 0.166667 0.728256
vt 0.250000 0.728256
vt 0.333333 0.728256
vt 0.416667 0.728256
vt 0.500000 0.728256
vt 0.583333 0.728256
vt 0.666667 0.728256
vt 0.750000 0.728256
vt 0.833333 0.728256
vt 0.916667 0.728256
vt 1.000000 0.728256
vt 0.083333 0.810731
vt 0.083333 0.728256
vt 0.166667 0.810731
vt 0.250000 0.810731
vt 0.333333 0.810731
vt 0.416667 0.810731
vt 0.500000 0.810731
vt 0.583333 0.810731
vt 0.666667 0.810731
vt 0.750000 0.810731
vt 0.833333 0.810731
vt 0.916667 0.810731
vt 1.000000 0.810731
vt 0.083333 0.820776
vt 0.000000 0.810731
vt 0.166667 0.820776
vt 0.333333 0.820776
vt 0.416667 0.820776
vt 0.583333 0.820776
vt 0.666667 0.820776
vt 0.833333 0.820776
vt 0.916667 0.820776
vt 0.083333 0.833502
vt 0.000000 0.820776
vt 0.166667 0.833502
vt 0.250000 0.833502
vt 0.250000 0.820776
vt 0.333333 0.833502
vt 0.416667 0.833502
vt 0.500000 0.833502
vt 0.500000 0.820776
vt 0.583333 0.833502
vt 0.666667 0.833502
vt 0.750000 0.833502
vt 0.750000 0.820776
vt 0.833333 0.833502
vt 0.916667 0.833502
vt 1.000000 0.833502
vt 1.000000 0.820776
vt 0.083333 0.847819
vt 0.000000 0.833502
vt 0.166667 0.847819
vt 0.250000 0.847819
vt 0.333333 0.847819
vt 0.416667 0.847819
vt 0.500000 0.847819
vt 0.583333 0.847819
vt 0.666667 0.847819
vt 0.750000 0.847819
vt 0.833333 0.847819
vt 0.916667 0.847819
vt 1.000000 0.847819
vt 0.000000 0.958127
vt 0.083333 0.958127
vt 0.166667 0.958127
vt 0.250000 0.958127
vt 0.333333 0.958127
vt 0.416667 0.958127
vt 0.500000 0.958127
vt 0.583333 0.958127
vt 0.666667 0.958127
vt 0.750000 0.958127
vt 0.833333 0.958127
vt 0.916667 0.958127
vt 1.000000 0.958127
vt 0.000000 0.847819
vt 0.625000 0.969021
vt 0.844021 0.730299
vt 0.625000 0.230299
vt 0.625000 0.469021
vt 0.000000 1.000000
s 1
f 8/1/1 1/2/1 7/3/1
f 16/4/2 7/5/2 13/6/2
f 4/7/3 8/8/3 16/4/3
f 2/9/4 3/10/4 1/11/4
f 4/12/5 13/13/5 3/14/5
f 6/6/1 15/15/1 12/16/1
f 11/12/6 6/13/6 12/14/6
f 14/9/4 12/10/4 15/11/4
f 11/7/5 9/8/5 5/4/5
f 5/4/2 10/5/2 6/6/2
f 9/1/3 15/2/3 10/3/3
f 13/6/6 1/15/6 3/16/6
f 17/17/6 19/18/6 21/19/6
f 18/20/3 22/21/3 20/22/3
f 20/23/7 140/24/8 139/25/7
f 17/17/6 21/19/6 23/26/6
f 18/20/3 24/27/3 22/21/3
f 22/28/8 141/29/9 140/24/8
f 17/17/6 23/26/6 25/30/6
f 18/20/3 26/31/3 24/27/3
f 24/32/9 142/33/10 141/29/9
f 17/17/6 25/30/6 27/34/6
f 18/20/3 28/35/3 26/31/3
f 26/36/10 143/37/11 142/33/10
f 17/17/6 27/34/6 29/38/6
f 18/20/3 30/39/3 28/35/3
f 28/40/11 144/41/12 143/37/11
f 17/17/6 29/38/6 31/42/6
f 18/20/3 32/43/3 30/39/3
f 30/44/12 145/45/13 144/41/12
f 17/17/6 31/42/6 33/46/6
f 18/20/3 34/47/3 32/43/3
f 32/48/13 146/49/14 145/45/13
f 17/17/6 33/46/6 35/50/6
f 18/20/3 36/51/3 34/47/3
f 34/52/14 147/53/15 146/49/14
f 17/17/6 35/50/6 37/54/6
f 18/20/3 38/55/3 36/51/3
f 36/56/15 148/57/16 147/53/15
f 17/17/6 37/54/6 39/58/6
f 18/20/3 40/59/3 38/55/3
f 38/60/16 149/61/17 148/57/16
f 17/17/6 39/58/6 41/62/6
f 18/20/3 42/63/3 40/59/3
f 40/64/17 150/65/18 149/61/17
f 17/17/6 41/62/6 19/18/6
f 18/20/3 20/22/3 42/63/3
f 42/66/18 139/67/7 150/65/18
f 54/68/19 19/69/20 41/70/19
f 53/71/21 41/70/19 39/72/22
f 52/73/23 39/72/22 37/74/23
f 51/75/24 37/74/23 35/76/25
f 50/77/26 35/76/25 33/78/27
f 49/79/28 33/78/27 31/80/28
f 48/81/29 31/80/28 29/82/29
f 47/83/30 29/82/29 27/84/31
f 46/85/32 27/84/31 25/86/32
f 45/87/33 25/86/32 23/88/34
f 44/89/35 23/88/34 21/90/36
f 43/91/20 21/90/36 19/92/20
f 66/93/37 43/94/38 54/68/37
f 65/95/39 54/68/37 53/71/39
f 64/96/40 53/71/39 52/73/40
f 63/97/41 52/73/40 51/75/41
f 62/98/42 51/75/41 50/77/42
f 61/99/43 50/77/42 49/79/43
f 60/100/44 49/79/43 48/81/44
f 59/101/45 48/81/44 47/83/45
f 58/102/46 47/83/45 46/85/46
f 57/103/47 46/85/46 45/87/47
f 56/104/48 45/87/47 44/89/48
f 55/105/38 44/89/48 43/91/38
f 66/93/49 67/106/50 55/107/51
f 77/108/52 66/93/49 65/95/53
f 76/109/54 65/95/53 64/96/55
f 75/110/56 64/96/55 63/97/57
f 74/111/58 63/97/57 62/98/59
f 73/112/60 62/98/59 61/99/61
f 72/113/62 61/99/61 60/100/63
f 71/114/64 60/100/63 59/101/65
f 70/115/66 59/101/65 58/102/67
f 69/116/68 58/102/67 57/103/69
f 68/117/70 57/103/69 56/104/71
f 67/118/50 56/104/71 55/105/51
f 78/119/72 79/120/73 67/106/50
f 89/121/74 78/119/72 77/108/52
f 88/122/75 77/108/52 76/109/54
f 87/123/76 76/109/54 75/110/56
f 86/124/77 75/110/56 74/111/58
f 85/125/78 74/111/58 73/112/60
f 84/126/79 73/112/60 72/113/62
f 83/127/80 72/113/62 71/114/64
f 82/128/81 71/114/64 70/115/66
f 81/129/82 70/115/66 69/116/68
f 80/130/83 69/116/68 68/117/70
f 79/131/73 68/117/70 67/118/50
f 102/132/84 79/120/73 90/133/85
f 101/134/86 90/133/85 89/121/74
f 100/135/87 89/121/74 88/122/75
f 99/136/88 88/122/75 87/123/76
f 98/137/89 87/123/76 86/124/77
f 97/138/90 86/124/77 85/125/78
f 96/139/91 85/125/78 84/126/79
f 95/140/92 84/126/79 83/127/80
f 94/141/93 83/127/80 82/128/81
f 93/142/94 82/128/81 81/129/82
f 92/143/95 81/129/82 80/130/83
f 91/144/96 80/130/83 79/131/73
f 114/145/97 91/146/98 102/132/97
f 101/134/99 114/145/97 102/132/97
f 100/135/100 113/147/99 101/134/99
f 111/148/101 100/135/100 99/136/101
f 98/137/102 111/148/101 99/136/101
f 97/138/103 110/149/102 98/137/102
f 108/150/104 97/138/103 96/139/104
f 95/140/105 108/150/104 96/139/104
f 94/141/106 107/151/105 95/140/105
f 105/152/107 94/141/106 93/142/107
f 92/143/108 105/152/107 93/142/107
f 91/144/98 104/153/108 92/143/108
f 126/154/109 103/155/110 114/145/109
f 125/156/111 114/145/109 113/147/111
f 124/157/112 113/147/111 112/158/112
f 123/159/113 112/158/112 111/148/113
f 122/160/114 111/148/113 110/149/114
f 121/161/115 110/149/114 109/162/115
f 120/163/116 109/162/115 108/150/116
f 119/164/117 108/150/116 107/151/117
f 118/165/118 107/151/117 106/166/118
f 117/167/119 106/166/118 105/152/119
f 116/168/120 105/152/119 104/153/120
f 115/169/110 104/153/120 103/170/110
f 138/171/121 115/172/122 126/154/121
f 137/173/123 126/154/121 125/156/123
f 136/174/124 125/156/123 124/157/124
f 135/175/125 124/157/124 123/159/125
f 134/176/126 123/159/125 122/160/126
f 133/177/127 122/160/126 121/161/127
f 132/178/128 121/161/127 120/163/128
f 131/179/129 120/163/128 119/164/129
f 130/180/130 119/164/129 118/165/130
f 129/181/131 118/165/130 117/167/131
f 128/182/132 117/167/131 116/168/132
f 127/183/122 116/168/132 115/169/122
f 150/65/133 162/184/134 161/185/135
f 149/61/136 161/185/135 160/186/137
f 159/187/138 149/61/136 160/186/137
f 147/53/139 159/187/138 158/188/140
f 146/49/141 158/188/140 157/189/141
f 156/190/142 146/49/141 157/189/141
f 144/41/143 156/190/142 155/191/144
f 143/37/145 155/191/144 154/192/146
f 153/193/147 143/37/145 154/192/146
f 141/29/148 153/193/147 152/194/149
f 140/24/150 152/194/149 151/195/150
f 162/196/134 140/24/150 151/195/150
f 162/196/151 128/182/152 127/183/151
f 151/195/152 129/181/153 128/182/152
f 152/194/154 130/180/155 129/181/153
f 153/193/155 131/179/156 130/180/155
f 154/192/156 132/178/157 131/179/156
f 155/191/158 133/177/159 132/178/157
f 156/190/159 134/176/160 133/177/159
f 157/189/160 135/175/161 134/176/160
f 158/188/162 136/174/163 135/175/161
f 159/187/163 137/173/164 136/174/163
f 160/186/164 138/171/165 137/173/164
f 161/185/166 127/197/151 138/171/165
f 8/1/1 2/198/1 1/2/1
f 16/4/2 8/8/2 7/5/2
f 4/7/3 2/199/3 8/8/3
f 2/9/4 4/200/4 3/10/4
f 4/12/5 16/201/5 13/13/5
f 6/6/1 10/5/1 15/15/1
f 11/12/6 5/201/6 6/13/6
f 14/9/4 11/200/4 12/10/4
f 11/7/5 14/199/5 9/8/5
f 5/4/2 9/8/2 10/5/2
f 9/1/3 14/198/3 15/2/3
f 13/6/6 7/5/6 1/15/6
f 20/23/7 22/28/8 140/24/8
f 22/28/8 24/32/9 141/29/9
f 24/32/9 26/36/10 142/33/10
f 26/36/10 28/40/11 143/37/11
f 28/40/11 30/44/12 144/41/12
f 30/44/12 32/48/13 145/45/13
f 32/48/13 34/52/14 146/49/14
f 34/52/14 36/56/15 147/53/15
f 36/56/15 38/60/16 148/57/16
f 38/60/16 40/64/17 149/61/17
f 40/64/17 42/66/18 150/65/18
f 42/66/18 20/202/7 139/67/7
f 54/68/19 43/94/20 19/69/20
f 53/71/21 54/68/19 41/70/19
f 52/73/23 53/71/21 39/72/22
f 51/75/24 52/73/23 37/74/23
f 50/77/26 51/75/24 35/76/25
f 49/79/28 50/77/26 33/78/27
f 48/81/29 49/79/28 31/80/28
f 47/83/30 48/81/29 29/82/29
f 46/85/32 47/83/30 27/84/31
f 45/87/33 46/85/32 25/86/32
f 44/89/35 45/87/33 23/88/34
f 43/91/20 44/89/35 21/90/36
f 66/93/37 55/107/38 43/94/38
f 65/95/39 66/93/37 54/68/37
f 64/96/40 65/95/39 53/71/39
f 63/97/41 64/96/40 52/73/40
f 62/98/42 63/97/41 51/75/41
f 61/99/43 62/98/42 50/77/42
f 60/100/44 61/99/43 49/79/43
f 59/101/45 60/100/44 48/81/44
f 58/102/46 59/101/45 47/83/45
f 57/103/47 58/102/46 46/85/46
f 56/104/48 57/103/47 45/87/47
f 55/105/38 56/104/48 44/89/48
f 66/93/49 78/119/72 67/106/50
f 77/108/52 78/119/72 66/93/49
f 76/109/54 77/108/52 65/95/53
f 75/110/56 76/109/54 64/96/55
f 74/111/58 75/110/56 63/97/57
f 73/112/60 74/111/58 62/98/59
f 72/113/62 73/112/60 61/99/61
f 71/114/64 72/113/62 60/100/63
f 70/115/66 71/114/64 59/101/65
f 69/116/68 70/115/66 58/102/67
f 68/117/70 69/116/68 57/103/69
f 67/118/50 68/117/70 56/104/71
f 78/119/72 90/133/85 79/120/73
f 89/121/74 90/133/85 78/119/72
f 88/122/75 89/121/74 77/108/52
f 87/123/76 88/122/75 76/109/54
f 86/124/77 87/123/76 75/110/56
f 85/125/78 86/124/77 74/111/58
f 84/126/79 85/125/78 73/112/60
f 83/127/80 84/126/79 72/113/62
f 82/128/81 83/127/80 71/114/64
f 81/129/82 82/128/81 70/115/66
f 80/130/83 81/129/82 69/116/68
f 79/131/73 80/130/83 68/117/70
f 102/132/84 91/146/96 79/120/73
f 101/134/86 102/132/84 90/133/85
f 100/135/87 101/134/86 89/121/74
f 99/136/88 100/135/87 88/122/75
f 98/137/89 99/136/88 87/123/76
f 97/138/90 98/137/89 86/124/77
f 96/139/91 97/138/90 85/125/78
f 95/140/92 96/139/91 84/126/79
f 94/141/93 95/140/92 83/127/80
f 93/142/94 94/141/93 82/128/81
f 92/143/95 93/142/94 81/129/82
f 91/144/96 92/143/95 80/130/83
f 114/145/97 103/155/98 91/146/98
f 101/134/99 113/147/99 114/145/97
f 100/135/100 112/158/100 113/147/99
f 111/148/101 112/158/100 100/135/100
f 98/137/102 110/149/102 111/148/101
f 97/138/103 109/162/103 110/149/102
f 108/150/104 109/162/103 97/138/103
f 95/140/105 107/151/105 108/150/104
f 94/141/106 106/166/106 107/151/105
f 105/152/107 106/166/106 94/141/106
f 92/143/108 104/153/108 105/152/107
f 91/144/98 103/170/98 104/153/108
f 126/154/109 115/172/110 103/155/110
f 125/156/111 126/154/109 114/145/109
f 124/157/112 125/156/111 113/147/111
f 123/159/113 124/157/112 112/158/112
f 122/160/114 123/159/113 111/148/113
f 121/161/115 122/160/114 110/149/114
f 120/163/116 121/161/115 109/162/115
f 119/164/117 120/163/116 108/150/116
f 118/165/118 119/164/117 107/151/117
f 117/167/119 118/165/118 106/166/118
f 116/168/120 117/167/119 105/152/119
f 115/169/110 116/168/120 104/153/120
f 138/171/121 127/197/122 115/172/122
f 137/173/123 138/171/121 126/154/121
f 136/174/124 137/173/123 125/156/123
f 135/175/125 136/174/124 124/157/124
f 134/176/126 135/175/125 123/159/125
f 133/177/127 134/176/126 122/160/126
f 132/178/128 133/177/127 121/161/127
f 131/179/129 132/178/128 120/163/128
f 130/180/130 131/179/129 119/164/129
f 129/181/131 130/180/130 118/165/130
f 128/182/132 129/181/131 117/167/131
f 127/183/122 128/182/132 116/168/132
f 150/65/133 139/67/134 162/184/134
f 149/61/136 150/65/133 161/185/135
f 159/187/138 148/57/138 149/61/136
f 147/53/139 148/57/138 159/187/138
f 146/49/141 147/53/139 158/188/140
f 156/190/142 145/45/142 146/49/141
f 144/41/143 145/45/142 156/190/142
f 143/37/145 144/41/143 155/191/144
f 153/193/147 142/33/147 143/37/145
f 141/29/148 142/33/147 153/193/147
f 140/24/150 141/29/148 152/194/149
f 162/196/134 139/25/134 140/24/150
f 162/196/151 151/195/152 128/182/152
f 151/195/152 152/194/154 129/181/153
f 152/194/154 153/193/155 130/180/155
f 153/193/155 154/192/156 131/179/156
f 154/192/156 155/191/158 132/178/157
f 155/191/158 156/190/159 133/177/159
f 156/190/159 157/189/160 134/176/160
f 157/189/160 158/188/162 135/175/161
f 158/188/162 159/187/163 136/174/163
f 159/187/163 160/186/164 137/173/164
f 160/186/164 161/185/166 138/171/165
f 161/185/166 162/184/151 127/197/151
