# Blender 4.1.0
# www.blender.org
o Pawn
v 0.000000 0.000000 0.000000
v -0.000000 0.681547 0.000000
v 0.000000 0.000000 -0.299333
v -0.000000 0.681547 -0.039441
v 0.149666 0.000000 -0.259230
v 0.019721 0.681547 -0.034157
v 0.259230 0.000000 -0.149666
v 0.034157 0.681547 -0.019721
v 0.299333 0.000000 0.000000
v 0.039441 0.681547 0.000000
v 0.259230 0.000000 0.149666
v 0.034157 0.681547 0.019721
v 0.149666 0.000000 0.259230
v 0.019721 0.681547 0.034157
v 0.000000 0.000000 0.299333
v -0.000000 0.681547 0.039441
v -0.149666 0.000000 0.259230
v -0.019721 0.681547 0.034157
v -0.259230 0.000000 0.149666
v -0.034157 0.681547 0.019721
v -0.299333 0.000000 0.000000
v -0.039441 0.681547 0.000000
v -0.259230 0.000000 -0.149666
v -0.034157 0.681547 -0.019721
v -0.149666 0.000000 -0.259230
v -0.019721 0.681547 -0.034157
v -0.000000 0.096656 -0.269545
v 0.134773 0.096656 -0.233433
v 0.233433 0.096656 -0.134773
v 0.269545 0.096656 0.000000
v 0.233433 0.096656 0.134773
v 0.134773 0.096656 0.233433
v -0.000000 0.096656 0.269545
v -0.134773 0.096656 0.233433
v -0.233433 0.096656 0.134773
v -0.269545 0.096656 0.000000
v -0.233433 0.096656 -0.134773
v -0.134773 0.096656 -0.233433
v 0.000000 0.168528 -0.295425
v 0.147713 0.168528 -0.255846
v 0.255846 0.168528 -0.147713
v 0.295425 0.168528 0.000000
v 0.255846 0.168528 0.147713
v 0.147713 0.168528 0.255846
v 0.000000 0.168528 0.295425
v -0.147713 0.168528 0.255846
v -0.255846 0.168528 0.147713
v -0.295425 0.168528 0.000000
v -0.255846 0.168528 -0.147713
v -0.147713 0.168528 -0.255846
v 0.000000 0.215617 -0.204005
v 0.102003 0.215617 -0.176674
v 0.176674 0.215617 -0.102003
v 0.204005 0.215617 -0.000000
v 0.176674 0.215617 0.102003
v 0.102003 0.215617 0.176674
v 0.000000 0.215617 0.204005
v -0.102003 0.215617 0.176674
v -0.176674 0.215617 0.102003
v -0.204005 0.215617 -0.000000
v -0.176674 0.215617 -0.102003
v -0.102003 0.215617 -0.176674
v 0.000000 0.310373 -0.141513
v 0.070757 0.310373 -0.122554
v 0.122554 0.310373 -0.070757
v 0.141513 0.310373 -0.000000
v 0.122554 0.310373 0.070757
v 0.070757 0.310373 0.122554
v 0.000000 0.310373 0.141513
v -0.070757 0.310373 0.122554
v -0.122554 0.310373 0.070757
v -0.141513 0.310373 -0.000000
v -0.122554 0.310373 -0.070757
v -0.070757 0.310373 -0.122554
v 0.000000 0.572682 -0.102953
v 0.051476 0.572682 -0.089160
v 0.089160 0.572682 -0.051476
v 0.102953 0.572682 0.000000
v 0.089160 0.572682 0.051476
v 0.051476 0.572682 0.089160
v 0.000000 0.572682 0.102953
v -0.051476 0.572682 0.089160
v -0.089160 0.572682 0.051476
v -0.102953 0.572682 0.000000
v -0.089160 0.572682 -0.051476
v -0.051476 0.572682 -0.089160
v 0.055167 0.397809 -0.095552
v 0.095552 0.397809 -0.055167
v 0.110334 0.397809 0.000000
v 0.095552 0.397809 0.055167
v 0.055167 0.397809 0.095552
v 0.000000 0.397809 0.110334
v -0.055167 0.397809 0.095552
v -0.095552 0.397809 0.055167
v -0.110334 0.397809 0.000000
v -0.095552 0.397809 -0.055167
v -0.055167 0.397809 -0.095552
v 0.000000 0.397809 -0.110334
v -0.000000 0.586857 -0.161178
v 0.080589 0.586857 -0.139584
v 0.139584 0.586857 -0.080589
v 0.161178 0.586857 -0.000000
v 0.139584 0.586857 0.080589
v 0.080589 0.586857 0.139584
v -0.000000 0.586857 0.161178
v -0.080589 0.586857 0.139584
v -0.139584 0.586857 0.080589
v -0.161178 0.586857 -0.000000
v -0.139584 0.586857 -0.080589
v -0.080589 0.586857 -0.139584
v 0.000000 0.611702 -0.169350
v 0.084675 0.611702 -0.146662
v 0.146662 0.611702 -0.084675
v 0.169350 0.611702 -0.000000
v 0.146662 0.611702 0.084675
v 0.084675 0.611702 0.146662
v 0.000000 0.611702 0.169350
v -0.084675 0.611702 0.146662
v -0.146662 0.611702 0.084675
v -0.169350 0.611702 -0.000000
v -0.146662 0.611702 -0.084675
v -0.084675 0.611702 -0.146662
v -0.000000 0.646624 -0.077569
v 0.038784 0.646624 -0.067177
v 0.067177 0.646624 -0.038784
v 0.077569 0.646624 -0.000000
v 0.067177 0.646624 0.038784
v 0.038784 0.646624 0.067177
v -0.000000 0.646624 0.077569
v -0.038784 0.646624 0.067177
v -0.067177 0.646624 0.038784
v -0.077569 0.646624 -0.000000
v -0.067177 0.646624 -0.038784
v -0.038784 0.646624 -0.067177
v -0.000000 0.922207 -0.110586
v -0.000000 0.811621 -0.156393
v -0.000000 0.701035 -0.110586
v 0.095770 0.922207 -0.055293
v 0.135440 0.811621 -0.078196
v 0.095770 0.701035 -0.055293
v 0.095770 0.922207 0.055293
v 0.135440 0.811621 0.078196
v 0.095770 0.701035 0.055293
v -0.000000 0.922207 0.110586
v -0.000000 0.811621 0.156392
v -0.000000 0.701035 0.110586
v -0.000000 0.655229 -0.000000
v -0.000000 0.968014 -0.000000
v -0.095771 0.922207 0.055293
v -0.135440 0.811621 0.078196
v -0.095771 0.701035 0.055293
v -0.095771 0.922207 -0.055293
v -0.135440 0.811621 -0.078196
v -0.095771 0.701035 -0.055293
vn -0.0000 -1.0000 -0.0000
vn -0.0000 1.0000 -0.0000
vn 0.2062 0.9110 -0.3572
vn -0.0000 0.9110 -0.4124
vn 0.2508 0.8651 -0.4343
vn -0.0000 0.8651 -0.5015
vn 0.3572 0.9110 -0.2062
vn 0.4343 0.8651 -0.2508
vn 0.4124 0.9110 -0.0000
vn 0.5015 0.8651 -0.0000
vn 0.3572 0.9110 0.2062
vn 0.4343 0.8651 0.2508
vn 0.2062 0.9110 0.3572
vn 0.2508 0.8651 0.4343
vn -0.0000 0.9110 0.4124
vn -0.0000 0.8651 0.5015
vn -0.2062 0.9110 0.3572
vn -0.2508 0.8651 0.4343
vn -0.3572 0.9110 0.2062
vn -0.4343 0.8651 0.2508
vn -0.4124 0.9110 -0.0000
vn -0.5015 0.8651 -0.0000
vn -0.3572 0.9110 -0.2062
vn -0.4343 0.8651 -0.2508
vn -0.2062 0.9110 -0.3572
vn -0.2508 0.8651 -0.4343
vn -0.4778 0.2945 -0.8276
vn -0.0000 0.2945 -0.9556
vn -0.8276 0.2945 -0.4778
vn -0.9556 0.2945 -0.0000
vn -0.8276 0.2945 0.4778
vn -0.4778 0.2945 0.8276
vn -0.0000 0.2945 0.9556
vn 0.4778 0.2945 0.8276
vn 0.8276 0.2945 0.4778
vn 0.9556 0.2945 -0.0000
vn 0.8276 0.2945 -0.4778
vn 0.4778 0.2945 -0.8276
vn -0.4704 -0.3388 -0.8148
vn -0.0000 -0.3388 -0.9409
vn -0.8148 -0.3388 -0.4704
vn -0.9409 -0.3388 -0.0000
vn -0.8148 -0.3388 0.4704
vn -0.4704 -0.3388 0.8148
vn -0.0000 -0.3388 0.9409
vn 0.4704 -0.3388 0.8148
vn 0.8148 -0.3388 0.4704
vn 0.9409 -0.3388 -0.0000
vn 0.8148 -0.3388 -0.4704
vn 0.4704 -0.3388 -0.8148
vn -0.3218 0.7654 -0.5573
vn -0.0000 0.8890 -0.4579
vn -0.2290 0.8890 -0.3966
vn -0.5573 0.7654 -0.3218
vn -0.3966 0.8890 -0.2289
vn -0.6436 0.7654 -0.0000
vn -0.4579 0.8890 -0.0000
vn -0.5573 0.7654 0.3218
vn -0.3966 0.8890 0.2290
vn -0.3218 0.7654 0.5573
vn -0.2289 0.8890 0.3966
vn -0.0000 0.7654 0.6436
vn -0.0000 0.8890 0.4579
vn 0.3218 0.7654 0.5573
vn 0.2290 0.8890 0.3966
vn 0.5573 0.7654 0.3218
vn 0.3966 0.8890 0.2289
vn 0.6436 0.7654 -0.0000
vn 0.4579 0.8890 -0.0000
vn 0.5573 0.7654 -0.3218
vn 0.3966 0.8890 -0.2290
vn 0.3218 0.7654 -0.5573
vn 0.2289 0.8890 -0.3966
vn -0.0000 0.7654 -0.6436
vn -0.4454 0.4545 -0.7714
vn -0.7714 0.4545 -0.4454
vn -0.8907 0.4545 -0.0000
vn -0.4454 0.4545 0.7714
vn -0.0000 0.4545 0.8907
vn 0.7714 0.4545 0.4454
vn 0.8907 0.4545 -0.0000
vn 0.4454 0.4545 -0.7714
vn -0.0000 0.4545 -0.8907
vn -0.4996 0.0422 -0.8653
vn -0.0000 0.1960 -0.9806
vn -0.4903 0.1960 -0.8492
vn -0.8653 0.0422 -0.4996
vn -0.8492 0.1960 -0.4903
vn -0.9991 0.0422 -0.0000
vn -0.9806 0.1960 -0.0000
vn -0.8492 0.1960 0.4903
vn -0.4996 0.0422 0.8653
vn -0.4903 0.1960 0.8492
vn -0.0000 0.0422 0.9991
vn -0.0000 0.1960 0.9806
vn 0.4903 0.1960 0.8492
vn 0.8653 0.0422 0.4996
vn 0.8492 0.1960 0.4903
vn 0.9991 0.0422 -0.0000
vn 0.9806 0.1960 -0.0000
vn 0.8492 0.1960 -0.4903
vn 0.4996 0.0422 -0.8653
vn 0.4903 0.1960 -0.8492
vn -0.0000 0.0422 -0.9991
vn 0.7714 0.4545 -0.4454
vn 0.4454 0.4545 0.7714
vn -0.7714 0.4545 0.4454
vn -0.1183 -0.9716 -0.2049
vn -0.0000 -0.9716 -0.2365
vn -0.1183 -0.9716 -0.2048
vn -0.2048 -0.9716 -0.1183
vn -0.2365 -0.9716 -0.0000
vn -0.2048 -0.9716 0.1183
vn -0.1183 -0.9716 0.2048
vn -0.0000 -0.9716 0.2365
vn 0.1183 -0.9716 0.2049
vn 0.1183 -0.9716 0.2048
vn 0.2048 -0.9716 0.1183
vn 0.2365 -0.9716 -0.0000
vn 0.2048 -0.9716 -0.1183
vn 0.1183 -0.9716 -0.2048
vn -0.4750 -0.3125 -0.8227
vn -0.0000 -0.3125 -0.9499
vn -0.8227 -0.3125 -0.4750
vn -0.9499 -0.3125 -0.0000
vn -0.8227 -0.3125 0.4750
vn -0.4750 -0.3125 0.8227
vn -0.0000 -0.3125 0.9499
vn 0.4750 -0.3125 0.8227
vn 0.8227 -0.3125 0.4750
vn 0.9499 -0.3125 -0.0000
vn 0.8227 -0.3125 -0.4750
vn 0.4750 -0.3125 -0.8227
vn -0.1778 0.9346 -0.3080
vn -0.0000 0.9346 -0.3556
vn -0.3080 0.9346 -0.1778
vn -0.3556 0.9346 -0.0000
vn -0.3080 0.9346 0.1778
vn -0.1778 0.9346 0.3080
vn -0.0000 0.9346 0.3556
vn 0.1778 0.9346 0.3080
vn 0.3080 0.9346 0.1778
vn 0.3556 0.9346 -0.0000
vn 0.3080 0.9346 -0.1778
vn 0.1778 0.9346 -0.3080
vn -0.0000 -0.0000 -1.0000
vn 0.6579 -0.6503 -0.3798
vn -0.0000 -0.6503 -0.7597
vn -0.0000 0.6503 -0.7597
vn 0.6579 0.6503 -0.3798
vn 0.8660 -0.0000 -0.5000
vn 0.6579 -0.6503 0.3798
vn 0.6579 0.6503 0.3798
vn 0.8660 -0.0000 0.5000
vn -0.0000 -0.6503 0.7597
vn -0.0000 0.6503 0.7597
vn -0.0000 -0.0000 1.0000
vn -0.6579 -0.6503 0.3798
vn -0.6579 0.6503 0.3798
vn -0.8660 -0.0000 0.5000
vn -0.8660 -0.0000 -0.5000
vn -0.6579 -0.6503 -0.3798
vn -0.6579 0.6503 -0.3798
vn -0.8653 0.0422 0.4996
vn 0.4996 0.0422 0.8653
vn 0.8653 0.0422 -0.4996
vt 0.750000 0.250000
vt 0.750000 0.490000
vt 0.870000 0.457846
vt 0.250000 0.250000
vt 0.370000 0.457846
vt 0.250000 0.490000
vt 1.000000 1.000000
vt 0.916667 0.951634
vt 1.000000 0.951634
vt 0.957846 0.370000
vt 0.457846 0.370000
vt 0.916667 1.000000
vt 0.833333 0.951634
vt 0.990000 0.250000
vt 0.490000 0.250000
vt 0.750000 1.000000
vt 0.750000 0.951634
vt 0.957846 0.130000
vt 0.457846 0.130000
vt 0.666667 0.951634
vt 0.870000 0.042154
vt 0.370000 0.042154
vt 0.666667 1.000000
vt 0.583333 0.951634
vt 0.750000 0.010000
vt 0.250000 0.010000
vt 0.500000 1.000000
vt 0.500000 0.951634
vt 0.630000 0.042154
vt 0.130000 0.042154
vt 0.416667 0.951634
vt 0.542154 0.130000
vt 0.042154 0.130000
vt 0.416667 1.000000
vt 0.333333 0.951634
vt 0.510000 0.250000
vt 0.010000 0.250000
vt 0.250000 1.000000
vt 0.250000 0.951634
vt 0.542154 0.370000
vt 0.042154 0.370000
vt 0.166667 0.951634
vt 0.630000 0.457846
vt 0.130000 0.457846
vt 0.166667 1.000000
vt 0.083333 0.951634
vt 0.000000 1.000000
vt 0.000000 0.951634
vt 0.083333 0.570909
vt 0.000000 0.500000
vt 0.083333 0.500000
vt 0.166667 0.500000
vt 0.250000 0.570909
vt 0.250000 0.500000
vt 0.333333 0.570909
vt 0.333333 0.500000
vt 0.416667 0.570909
vt 0.416667 0.500000
vt 0.500000 0.570909
vt 0.500000 0.500000
vt 0.583333 0.570909
vt 0.583333 0.500000
vt 0.666667 0.570909
vt 0.666667 0.500000
vt 0.750000 0.570909
vt 0.750000 0.500000
vt 0.833333 0.570909
vt 0.833333 0.500000
vt 0.916667 0.500000
vt 1.000000 0.570909
vt 1.000000 0.500000
vt 0.083333 0.623636
vt 0.000000 0.570909
vt 0.166667 0.570909
vt 0.250000 0.623636
vt 0.333333 0.623636
vt 0.500000 0.623636
vt 0.583333 0.623636
vt 0.666667 0.623636
vt 0.833333 0.623636
vt 0.916667 0.623636
vt 0.916667 0.570909
vt 1.000000 0.623636
vt 0.083333 0.658182
vt 0.000000 0.623636
vt 0.166667 0.658182
vt 0.166667 0.623636
vt 0.250000 0.658182
vt 0.333333 0.658182
vt 0.416667 0.658182
vt 0.416667 0.623636
vt 0.500000 0.658182
vt 0.583333 0.658182
vt 0.666667 0.658182
vt 0.750000 0.658182
vt 0.750000 0.623636
vt 0.833333 0.658182
vt 0.916667 0.658182
vt 1.000000 0.658182
vt 0.083333 0.727697
vt 0.000000 0.658182
vt 0.166667 0.727697
vt 0.250000 0.727697
vt 0.416667 0.727697
vt 0.500000 0.727697
vt 0.666667 0.727697
vt 0.750000 0.727697
vt 0.916667 0.727697
vt 1.000000 0.727697
vt 0.083333 0.849228
vt 0.000000 0.768208
vt 0.083333 0.768208
vt 0.166667 0.849228
vt 0.166667 0.768208
vt 0.250000 0.849228
vt 0.250000 0.768208
vt 0.333333 0.768208
vt 0.416667 0.849228
vt 0.416667 0.768208
vt 0.500000 0.849228
vt 0.500000 0.768208
vt 0.583333 0.768208
vt 0.666667 0.849228
vt 0.666667 0.768208
vt 0.750000 0.849228
vt 0.750000 0.768208
vt 0.833333 0.768208
vt 0.916667 0.849228
vt 0.916667 0.768208
vt 1.000000 0.849228
vt 1.000000 0.768208
vt 0.833333 0.727697
vt 0.583333 0.727697
vt 0.333333 0.727697
vt 0.000000 0.727697
vt 0.083333 0.868860
vt 0.000000 0.849228
vt 0.166667 0.868860
vt 0.333333 0.868860
vt 0.333333 0.849228
vt 0.416667 0.868860
vt 0.583333 0.868860
vt 0.583333 0.849228
vt 0.666667 0.868860
vt 0.833333 0.868860
vt 0.833333 0.849228
vt 0.916667 0.868860
vt 0.083333 0.903268
vt 0.000000 0.868860
vt 0.166667 0.903268
vt 0.250000 0.903268
vt 0.250000 0.868860
vt 0.333333 0.903268
vt 0.416667 0.903268
vt 0.500000 0.903268
vt 0.500000 0.868860
vt 0.583333 0.903268
vt 0.666667 0.903268
vt 0.750000 0.903268
vt 0.750000 0.868860
vt 0.833333 0.903268
vt 0.916667 0.903268
vt 1.000000 0.903268
vt 1.000000 0.868860
vt 0.000000 0.903268
vt 0.666667 0.500000
vt 0.500000 0.250000
vt 0.666667 0.250000
vt 0.666667 0.750000
vt 0.583333 1.000000
vt 0.500000 0.750000
vt 0.583333 0.000000
vt 0.500000 0.500000
vt 0.333333 0.250000
vt 0.416667 1.000000
vt 0.333333 0.750000
vt 0.416667 0.000000
vt 0.333333 0.500000
vt 0.166667 0.250000
vt 0.250000 1.000000
vt 0.166667 0.750000
vt 0.250000 0.000000
vt 0.166667 0.500000
vt 0.000000 0.250000
vt 0.083333 1.000000
vt 0.000000 0.750000
vt 0.083333 0.000000
vt 0.000000 0.500000
vt 1.000000 0.750000
vt 0.833333 0.500000
vt 1.000000 0.500000
vt 0.833333 0.250000
vt 1.000000 0.250000
vt 0.833333 0.750000
vt 0.916667 0.000000
vt 0.750000 0.000000
vt 0.750000 1.000000
vt 0.833333 1.000000
vt 0.583333 1.000000
vt 0.333333 1.000000
vt 0.083333 1.000000
s 1
f 1/1/1 3/2/1 5/3/1
f 2/4/2 6/5/3 4/6/4
f 4/7/4 124/8/5 123/9/6
f 1/1/1 5/3/1 7/10/1
f 2/4/2 8/11/7 6/5/3
f 6/12/3 125/13/8 124/8/5
f 1/1/1 7/10/1 9/14/1
f 2/4/2 10/15/9 8/11/7
f 125/13/8 10/16/9 126/17/10
f 1/1/1 9/14/1 11/18/1
f 2/4/2 12/19/11 10/15/9
f 10/16/9 127/20/12 126/17/10
f 1/1/1 11/18/1 13/21/1
f 2/4/2 14/22/13 12/19/11
f 12/23/11 128/24/14 127/20/12
f 1/1/1 13/21/1 15/25/1
f 2/4/2 16/26/15 14/22/13
f 128/24/14 16/27/15 129/28/16
f 1/1/1 15/25/1 17/29/1
f 2/4/2 18/30/17 16/26/15
f 16/27/15 130/31/18 129/28/16
f 1/1/1 17/29/1 19/32/1
f 2/4/2 20/33/19 18/30/17
f 18/34/17 131/35/20 130/31/18
f 1/1/1 19/32/1 21/36/1
f 2/4/2 22/37/21 20/33/19
f 131/35/20 22/38/21 132/39/22
f 1/1/1 21/36/1 23/40/1
f 2/4/2 24/41/23 22/37/21
f 22/38/21 133/42/24 132/39/22
f 1/1/1 23/40/1 25/43/1
f 2/4/2 26/44/25 24/41/23
f 24/45/23 134/46/26 133/42/24
f 1/1/1 25/43/1 3/2/1
f 2/4/2 4/6/4 26/44/25
f 134/46/26 4/47/4 123/48/6
f 38/49/27 3/50/28 25/51/27
f 23/52/29 38/49/27 25/51/27
f 36/53/30 23/52/29 21/54/30
f 35/55/31 21/54/30 19/56/31
f 34/57/32 19/56/31 17/58/32
f 33/59/33 17/58/32 15/60/33
f 32/61/34 15/60/33 13/62/34
f 31/63/35 13/62/34 11/64/35
f 30/65/36 11/64/35 9/66/36
f 29/67/37 9/66/36 7/68/37
f 5/69/38 29/67/37 7/68/37
f 27/70/28 5/69/38 3/71/28
f 50/72/39 27/73/40 38/49/39
f 37/74/41 50/72/39 38/49/39
f 48/75/42 37/74/41 36/53/42
f 47/76/43 36/53/42 35/55/43
f 34/57/44 47/76/43 35/55/43
f 45/77/45 34/57/44 33/59/45
f 44/78/46 33/59/45 32/61/46
f 31/63/47 44/78/46 32/61/46
f 30/65/48 43/79/47 31/63/47
f 41/80/49 30/65/48 29/67/49
f 40/81/50 29/67/49 28/82/50
f 39/83/40 28/82/50 27/70/40
f 62/84/51 39/85/52 50/72/53
f 61/86/54 50/72/53 49/87/55
f 60/88/56 49/87/55 48/75/57
f 59/89/58 48/75/57 47/76/59
f 58/90/60 47/76/59 46/91/61
f 57/92/62 46/91/61 45/77/63
f 56/93/64 45/77/63 44/78/65
f 55/94/66 44/78/65 43/79/67
f 54/95/68 43/79/67 42/96/69
f 53/97/70 42/96/69 41/80/71
f 52/98/72 41/80/71 40/81/73
f 51/99/74 40/81/73 39/83/52
f 74/100/75 51/101/74 62/84/51
f 73/102/76 62/84/51 61/86/54
f 72/103/77 61/86/54 60/88/56
f 59/89/58 72/103/77 60/88/56
f 70/104/78 59/89/58 58/90/60
f 69/105/79 58/90/60 57/92/62
f 56/93/64 69/105/79 57/92/62
f 67/106/80 56/93/64 55/94/66
f 66/107/81 55/94/66 54/95/68
f 53/97/70 66/107/81 54/95/68
f 64/108/82 53/97/70 52/98/72
f 63/109/83 52/98/72 51/99/74
f 86/110/84 98/111/85 97/112/86
f 85/113/87 97/112/86 96/114/88
f 84/115/89 96/114/88 95/116/90
f 94/117/91 84/115/89 95/116/90
f 82/118/92 94/117/91 93/119/93
f 81/120/94 93/119/93 92/121/95
f 91/122/96 81/120/94 92/121/95
f 79/123/97 91/122/96 90/124/98
f 78/125/99 90/124/98 89/126/100
f 88/127/101 78/125/99 89/126/100
f 76/128/102 88/127/101 87/129/103
f 75/130/104 87/129/103 98/131/85
f 63/109/83 87/129/103 64/108/82
f 87/129/103 65/132/105 64/108/82
f 65/132/105 89/126/100 66/107/81
f 89/126/100 67/106/80 66/107/81
f 90/124/98 68/133/106 67/106/80
f 68/133/106 92/121/95 69/105/79
f 92/121/95 70/104/78 69/105/79
f 93/119/93 71/134/107 70/104/78
f 71/134/107 95/116/90 72/103/77
f 95/116/90 73/102/76 72/103/77
f 96/114/88 74/100/75 73/102/76
f 97/112/86 63/135/83 74/100/75
f 110/136/108 75/137/109 86/110/110
f 109/138/111 86/110/110 85/113/111
f 84/115/112 109/138/111 85/113/111
f 107/139/113 84/115/112 83/140/113
f 106/141/114 83/140/113 82/118/114
f 81/120/115 106/141/114 82/118/114
f 104/142/116 81/120/115 80/143/117
f 103/144/118 80/143/117 79/123/118
f 78/125/119 103/144/118 79/123/118
f 101/145/120 78/125/119 77/146/120
f 100/147/121 77/146/120 76/128/121
f 75/130/109 100/147/121 76/128/121
f 122/148/122 99/149/123 110/136/122
f 121/150/124 110/136/122 109/138/124
f 120/151/125 109/138/124 108/152/125
f 119/153/126 108/152/125 107/139/126
f 118/154/127 107/139/126 106/141/127
f 117/155/128 106/141/127 105/156/128
f 116/157/129 105/156/128 104/142/129
f 115/158/130 104/142/129 103/144/130
f 114/159/131 103/144/130 102/160/131
f 113/161/132 102/160/131 101/145/132
f 112/162/133 101/145/132 100/147/133
f 111/163/123 100/147/133 99/164/123
f 122/148/134 123/48/6 111/165/135
f 121/150/136 134/46/26 122/148/134
f 132/39/22 121/150/136 120/151/137
f 119/153/138 132/39/22 120/151/137
f 118/154/139 131/35/20 119/153/138
f 129/28/16 118/154/139 117/155/140
f 116/157/141 129/28/16 117/155/140
f 115/158/142 128/24/14 116/157/141
f 126/17/10 115/158/142 114/159/143
f 113/161/144 126/17/10 114/159/143
f 112/162/145 125/13/8 113/161/144
f 123/9/6 112/162/145 111/163/135
f 136/166/146 140/167/147 137/168/148
f 135/169/149 148/170/2 138/171/150
f 147/172/1 137/168/148 140/167/147
f 136/166/146 138/171/150 139/173/151
f 139/173/151 143/174/152 140/167/147
f 138/171/150 148/175/2 141/176/153
f 147/177/1 140/167/147 143/174/152
f 139/173/151 141/176/153 142/178/154
f 142/178/154 146/179/155 143/174/152
f 141/176/153 148/180/2 144/181/156
f 147/182/1 143/174/152 146/179/155
f 141/176/153 145/183/157 142/178/154
f 145/183/157 151/184/158 146/179/155
f 144/181/156 148/185/2 149/186/159
f 147/187/1 146/179/155 151/184/158
f 144/181/156 150/188/160 145/183/157
f 149/189/159 153/190/161 150/191/160
f 150/191/160 154/192/162 151/193/158
f 149/189/159 148/12/2 152/194/163
f 147/195/1 151/193/158 154/192/162
f 147/196/1 154/192/162 137/168/148
f 152/194/163 136/166/146 153/190/161
f 154/192/162 136/166/146 137/168/148
f 152/194/163 148/197/2 135/169/149
f 4/7/4 6/12/3 124/8/5
f 6/12/3 8/198/7 125/13/8
f 125/13/8 8/198/7 10/16/9
f 10/16/9 12/23/11 127/20/12
f 12/23/11 14/199/13 128/24/14
f 128/24/14 14/199/13 16/27/15
f 16/27/15 18/34/17 130/31/18
f 18/34/17 20/200/19 131/35/20
f 131/35/20 20/200/19 22/38/21
f 22/38/21 24/45/23 133/42/24
f 24/45/23 26/201/25 134/46/26
f 134/46/26 26/201/25 4/47/4
f 38/49/27 27/73/28 3/50/28
f 23/52/29 37/74/29 38/49/27
f 36/53/30 37/74/29 23/52/29
f 35/55/31 36/53/30 21/54/30
f 34/57/32 35/55/31 19/56/31
f 33/59/33 34/57/32 17/58/32
f 32/61/34 33/59/33 15/60/33
f 31/63/35 32/61/34 13/62/34
f 30/65/36 31/63/35 11/64/35
f 29/67/37 30/65/36 9/66/36
f 5/69/38 28/82/38 29/67/37
f 27/70/28 28/82/38 5/69/38
f 50/72/39 39/85/40 27/73/40
f 37/74/41 49/87/41 50/72/39
f 48/75/42 49/87/41 37/74/41
f 47/76/43 48/75/42 36/53/42
f 34/57/44 46/91/44 47/76/43
f 45/77/45 46/91/44 34/57/44
f 44/78/46 45/77/45 33/59/45
f 31/63/47 43/79/47 44/78/46
f 30/65/48 42/96/48 43/79/47
f 41/80/49 42/96/48 30/65/48
f 40/81/50 41/80/49 29/67/49
f 39/83/40 40/81/50 28/82/50
f 62/84/51 51/101/74 39/85/52
f 61/86/54 62/84/51 50/72/53
f 60/88/56 61/86/54 49/87/55
f 59/89/58 60/88/56 48/75/57
f 58/90/60 59/89/58 47/76/59
f 57/92/62 58/90/60 46/91/61
f 56/93/64 57/92/62 45/77/63
f 55/94/66 56/93/64 44/78/65
f 54/95/68 55/94/66 43/79/67
f 53/97/70 54/95/68 42/96/69
f 52/98/72 53/97/70 41/80/71
f 51/99/74 52/98/72 40/81/73
f 74/100/75 63/135/83 51/101/74
f 73/102/76 74/100/75 62/84/51
f 72/103/77 73/102/76 61/86/54
f 59/89/58 71/134/107 72/103/77
f 70/104/78 71/134/107 59/89/58
f 69/105/79 70/104/78 58/90/60
f 56/93/64 68/133/106 69/105/79
f 67/106/80 68/133/106 56/93/64
f 66/107/81 67/106/80 55/94/66
f 53/97/70 65/132/105 66/107/81
f 64/108/82 65/132/105 53/97/70
f 63/109/83 64/108/82 52/98/72
f 86/110/84 75/137/104 98/111/85
f 85/113/87 86/110/84 97/112/86
f 84/115/89 85/113/87 96/114/88
f 94/117/91 83/140/164 84/115/89
f 82/118/92 83/140/164 94/117/91
f 81/120/94 82/118/92 93/119/93
f 91/122/96 80/143/165 81/120/94
f 79/123/97 80/143/165 91/122/96
f 78/125/99 79/123/97 90/124/98
f 88/127/101 77/146/166 78/125/99
f 76/128/102 77/146/166 88/127/101
f 75/130/104 76/128/102 87/129/103
f 63/109/83 98/131/85 87/129/103
f 87/129/103 88/127/101 65/132/105
f 65/132/105 88/127/101 89/126/100
f 89/126/100 90/124/98 67/106/80
f 90/124/98 91/122/96 68/133/106
f 68/133/106 91/122/96 92/121/95
f 92/121/95 93/119/93 70/104/78
f 93/119/93 94/117/91 71/134/107
f 71/134/107 94/117/91 95/116/90
f 95/116/90 96/114/88 73/102/76
f 96/114/88 97/112/86 74/100/75
f 97/112/86 98/111/85 63/135/83
f 110/136/108 99/149/109 75/137/109
f 109/138/111 110/136/108 86/110/110
f 84/115/112 108/152/112 109/138/111
f 107/139/113 108/152/112 84/115/112
f 106/141/114 107/139/113 83/140/113
f 81/120/115 105/156/115 106/141/114
f 104/142/116 105/156/115 81/120/115
f 103/144/118 104/142/116 80/143/117
f 78/125/119 102/160/119 103/144/118
f 101/145/120 102/160/119 78/125/119
f 100/147/121 101/145/120 77/146/120
f 75/130/109 99/164/109 100/147/121
f 122/148/122 111/165/123 99/149/123
f 121/150/124 122/148/122 110/136/122
f 120/151/125 121/150/124 109/138/124
f 119/153/126 120/151/125 108/152/125
f 118/154/127 119/153/126 107/139/126
f 117/155/128 118/154/127 106/141/127
f 116/157/129 117/155/128 105/156/128
f 115/158/130 116/157/129 104/142/129
f 114/159/131 115/158/130 103/144/130
f 113/161/132 114/159/131 102/160/131
f 112/162/133 113/161/132 101/145/132
f 111/163/123 112/162/133 100/147/133
f 122/148/134 134/46/26 123/48/6
f 121/150/136 133/42/24 134/46/26
f 132/39/22 133/42/24 121/150/136
f 119/153/138 131/35/20 132/39/22
f 118/154/139 130/31/18 131/35/20
f 129/28/16 130/31/18 118/154/139
f 116/157/141 128/24/14 129/28/16
f 115/158/142 127/20/12 128/24/14
f 126/17/10 127/20/12 115/158/142
f 113/161/144 125/13/8 126/17/10
f 112/162/145 124/8/5 125/13/8
f 123/9/6 124/8/5 112/162/145
f 136/166/146 139/173/151 140/167/147
f 136/166/146 135/169/149 138/171/150
f 139/173/151 142/178/154 143/174/152
f 139/173/151 138/171/150 141/176/153
f 142/178/154 145/183/157 146/179/155
f 141/176/153 144/181/156 145/183/157
f 145/183/157 150/188/160 151/184/158
f 144/181/156 149/186/159 150/188/160
f 149/189/159 152/194/163 153/190/161
f 150/191/160 153/190/161 154/192/162
f 152/194/163 135/169/149 136/166/146
f 154/192/162 153/190/161 136/166/146
