# Blender 4.1.0
# www.blender.org
o Rook
v -0.000000 0.000000 -0.000971
v -0.000000 0.000000 -0.377950
v -0.000000 1.054095 -0.276845
v 0.188490 0.000000 -0.327444
v 0.137937 1.054095 -0.239885
v 0.326474 0.000000 -0.189460
v 0.238914 1.054095 -0.138908
v 0.376979 0.000000 -0.000971
v 0.275874 1.054095 -0.000971
v 0.326474 0.000000 0.187519
v 0.238914 1.054095 0.136966
v 0.188490 0.000000 0.325503
v 0.137937 1.054095 0.237943
v -0.000000 0.000000 0.376008
v -0.000000 1.054095 0.274903
v -0.188490 0.000000 0.325503
v -0.137937 1.054095 0.237943
v -0.326474 0.000000 0.187519
v -0.238914 1.054095 0.136966
v -0.376979 0.000000 -0.000971
v -0.275874 1.054095 -0.000971
v -0.326474 0.000000 -0.189460
v -0.238914 1.054095 -0.138908
v -0.188490 0.000000 -0.327444
v -0.137937 1.054095 -0.239885
v -0.000000 0.245462 -0.377545
v 0.188287 0.245462 -0.327093
v 0.326123 0.245462 -0.189258
v 0.376575 0.245462 -0.000971
v 0.326123 0.245462 0.187317
v 0.188287 0.245462 0.325152
v -0.000000 0.245462 0.375604
v -0.188287 0.245462 0.325152
v -0.326123 0.245462 0.187317
v -0.376575 0.245462 -0.000971
v -0.326123 0.245462 -0.189258
v -0.188287 0.245462 -0.327093
v 0.172924 0.134172 -0.300484
v 0.299514 0.134172 -0.173895
v 0.345849 0.134172 -0.000971
v 0.299514 0.134172 0.171954
v 0.172924 0.134172 0.298543
v -0.000000 0.134172 0.344878
v -0.172924 0.134172 0.298543
v -0.299514 0.134172 0.171954
v -0.345849 0.134172 -0.000971
v -0.299514 0.134172 -0.173895
v -0.172924 0.134172 -0.300484
v -0.000000 0.134172 -0.346819
v -0.000000 0.397643 -0.261052
v 0.130041 0.397643 -0.226208
v 0.225237 0.397643 -0.131011
v 0.260082 0.397643 -0.000971
v 0.225237 0.397643 0.129070
v 0.130041 0.397643 0.224266
v -0.000000 0.397643 0.259111
v -0.130041 0.397643 0.224266
v -0.225237 0.397643 0.129070
v -0.260082 0.397643 -0.000971
v -0.225237 0.397643 -0.131011
v -0.130041 0.397643 -0.226208
v 0.108844 0.988780 -0.189494
v 0.188523 0.988780 -0.109814
v 0.217688 0.988780 -0.000971
v 0.188523 0.988780 0.107873
v 0.000000 0.988780 0.216717
v -0.188523 0.988780 0.107873
v -0.188523 0.988780 -0.109814
v 0.000000 0.988780 -0.218658
v 0.108844 0.988780 0.187553
v -0.108844 0.988780 0.187553
v -0.217688 0.988780 -0.000971
v -0.108844 0.988780 -0.189494
v 0.000000 1.045898 -0.278107
v 0.138569 1.045898 -0.240978
v 0.240008 1.045898 -0.139539
v 0.277137 1.045898 -0.000971
v 0.240008 1.045898 0.137598
v 0.138569 1.045898 0.239037
v 0.000000 1.045898 0.276166
v -0.138569 1.045898 0.239037
v -0.240008 1.045898 0.137598
v -0.277137 1.045898 -0.000971
v -0.240008 1.045898 -0.139539
v -0.138569 1.045898 -0.240978
v -0.000000 1.054095 -0.000971
v -0.000000 1.054095 -0.160727
v 0.079878 1.054095 -0.139323
v 0.138353 1.054095 -0.080849
v 0.159756 1.054095 -0.000971
v 0.138353 1.054095 0.078907
v 0.079878 1.054095 0.137382
v -0.000000 1.054095 0.158785
v -0.079878 1.054095 0.137382
v -0.138353 1.054095 0.078907
v -0.159756 1.054095 -0.000971
v -0.138353 1.054095 -0.080849
v -0.079878 1.054095 -0.139323
v 0.004369 1.159570 -0.164214
v 0.004369 1.159570 -0.271015
v -0.138806 1.159570 -0.232652
v -0.085406 1.159570 -0.140159
v 0.131238 1.159570 -0.237021
v 0.077838 1.159570 -0.144529
v -0.004369 1.159570 0.162273
v -0.004369 1.159570 0.269074
v 0.270045 1.159570 -0.005340
v 0.236050 1.159570 -0.132209
v -0.143558 1.159570 0.076867
v -0.236050 1.159570 0.130267
v -0.131238 1.159570 0.235079
v -0.077838 1.159570 0.142587
v 0.138806 1.159570 0.230710
v 0.231681 1.159570 0.137835
v -0.139189 1.159570 -0.086377
v -0.231681 1.159570 -0.139777
v -0.270045 1.159570 0.003398
v -0.163244 1.159570 0.003398
v 0.163244 1.159570 -0.005340
v 0.143558 1.159570 -0.078809
v 0.085406 1.159570 0.138218
v 0.139189 1.159570 0.084435
vn -0.0000 -1.0000 -0.0000
vn 0.0855 0.1174 -0.9894
vn 0.2586 0.0426 -0.9650
vn 0.4207 0.1174 -0.8996
vn -0.0000 0.1522 -0.9883
vn 0.4942 0.1522 -0.8559
vn -0.7065 0.0426 -0.7065
vn 0.8996 0.1174 -0.4207
vn 0.8559 0.1523 -0.4942
vn -0.2586 0.0426 0.9650
vn 0.9894 0.1174 -0.0855
vn 0.9883 0.1523 -0.0000
vn -0.8141 0.1174 -0.5687
vn -0.5687 0.1174 -0.8141
vn 0.8141 0.1174 0.5687
vn 0.8559 0.1523 0.4942
vn -0.0000 1.0000 -0.0000
vn 0.5687 0.1174 0.8141
vn 0.4942 0.1523 0.8559
vn -0.0855 0.1174 0.9894
vn -0.0000 0.1523 0.9883
vn -0.4942 0.1523 0.8559
vn -0.4207 0.1174 0.8996
vn -0.8559 0.1523 0.4942
vn -0.8996 0.1174 0.4207
vn -0.9883 0.1523 -0.0000
vn -0.9894 0.1174 0.0854
vn -0.8559 0.1523 -0.4942
vn 0.8653 0.0414 -0.4996
vn -0.4942 0.1522 -0.8559
vn 0.7065 0.0426 0.7065
vn -0.4820 -0.2661 -0.8348
vn -0.0000 -0.2661 -0.9639
vn -0.8348 -0.2661 -0.4820
vn -0.9639 -0.2661 -0.0000
vn -0.8348 -0.2661 0.4820
vn -0.4820 -0.2661 0.8348
vn -0.0000 -0.2661 0.9639
vn 0.4820 -0.2661 0.8348
vn 0.8348 -0.2661 0.4820
vn 0.9639 -0.2661 -0.0000
vn 0.8348 -0.2661 -0.4820
vn 0.4820 -0.2661 -0.8348
vn -0.0000 0.2260 -0.9741
vn 0.4871 0.2260 -0.8436
vn 0.8436 0.2260 -0.4871
vn 0.9741 0.2260 -0.0000
vn 0.8436 0.2260 0.4871
vn 0.4871 0.2260 0.8436
vn -0.0000 0.2260 0.9741
vn -0.4871 0.2260 0.8436
vn -0.8436 0.2260 0.4871
vn -0.9741 0.2260 -0.0000
vn -0.8436 0.2260 -0.4871
vn -0.4871 0.2260 -0.8436
vn -0.3970 0.6078 -0.6877
vn -0.0000 0.6078 -0.7941
vn -0.6877 0.6078 -0.3970
vn -0.7941 0.6078 -0.0000
vn -0.6877 0.6078 0.3970
vn -0.3970 0.6078 0.6877
vn -0.0000 0.6078 0.7941
vn 0.3970 0.6078 0.6877
vn 0.6877 0.6078 0.3970
vn 0.7941 0.6078 -0.0000
vn 0.6877 0.6078 -0.3970
vn 0.3970 0.6078 -0.6877
vn -0.4987 0.0715 -0.8638
vn -0.0000 0.0715 -0.9974
vn -0.8638 0.0715 -0.4987
vn -0.9974 0.0715 -0.0000
vn -0.8638 0.0715 0.4987
vn -0.4987 0.0715 0.8638
vn -0.0000 0.0715 0.9974
vn 0.4987 0.0715 0.8638
vn 0.8638 0.0715 0.4987
vn 0.9974 0.0715 -0.0000
vn 0.8638 0.0715 -0.4987
vn 0.4987 0.0715 -0.8638
vn -0.3464 -0.7211 -0.6000
vn -0.0000 -0.7211 -0.6928
vn -0.6000 -0.7211 -0.3464
vn -0.6928 -0.7211 -0.0000
vn -0.6000 -0.7211 0.3464
vn -0.3464 -0.7211 0.6000
vn -0.0000 -0.7211 0.6928
vn 0.3464 -0.7211 0.6000
vn 0.6000 -0.7211 0.3464
vn 0.6928 -0.7211 -0.0000
vn 0.6000 -0.7211 -0.3464
vn 0.3464 -0.7211 -0.6000
vn 0.4996 0.0414 0.8653
vn -0.0000 0.0414 -0.9991
vn 0.9650 0.0426 -0.2586
vn -0.8653 0.0414 0.4996
vn 0.9991 0.0414 -0.0000
vn -0.4996 0.0414 0.8653
vn -0.4996 0.0414 -0.8653
vn -0.9650 0.0426 0.2586
vn 0.8653 0.0414 0.4996
vn -0.8653 0.0414 -0.4996
vn -0.9991 0.0414 -0.0000
vn -0.0000 0.0414 0.9991
vn 0.4996 0.0414 -0.8653
vt 0.750000 0.250000
vt 0.750000 0.490000
vt 0.870000 0.457846
vt 1.000000 1.000000
vt 0.916667 1.000000
vt 1.000000 0.946630
vt 0.916667 0.946630
vt 0.957846 0.370000
vt 0.457846 0.130000
vt 0.370000 0.042154
vt 0.833333 1.000000
vt 0.833333 0.946630
vt 0.990000 0.250000
vt 0.370000 0.457846
vt 0.250000 0.490000
vt 0.750000 1.000000
vt 0.750000 0.946630
vt 0.957846 0.130000
vt 0.166667 1.000000
vt 0.083333 1.000000
vt 0.666667 1.000000
vt 0.666667 0.946630
vt 0.870000 0.042154
vt 0.000000 1.000000
vt 0.583333 1.000000
vt 0.583333 0.946630
vt 0.750000 0.010000
vt 0.500000 1.000000
vt 0.500000 0.946630
vt 0.630000 0.042154
vt 0.416667 0.946630
vt 0.542154 0.130000
vt 0.416667 1.000000
vt 0.333333 0.946630
vt 0.510000 0.250000
vt 0.333333 1.000000
vt 0.250000 0.946630
vt 0.542154 0.370000
vt 0.250000 1.000000
vt 0.166667 0.946630
vt 0.630000 0.457846
vt 0.083333 0.946630
vt 0.000000 0.946630
vt 0.083333 0.549351
vt 0.000000 0.526976
vt 0.083333 0.526976
vt 0.166667 0.526976
vt 0.250000 0.549351
vt 0.250000 0.526976
vt 0.333333 0.549351
vt 0.333333 0.526976
vt 0.416667 0.549351
vt 0.416667 0.526976
vt 0.500000 0.549351
vt 0.500000 0.526976
vt 0.583333 0.526976
vt 0.666667 0.526976
vt 0.583333 0.549351
vt 0.750000 0.526976
vt 0.666667 0.549351
vt 0.833333 0.526976
vt 0.750000 0.549351
vt 0.916667 0.549351
vt 0.916667 0.526976
vt 1.000000 0.549351
vt 1.000000 0.526976
vt 1.000000 0.500000
vt 0.916667 0.500000
vt 0.833333 0.500000
vt 0.750000 0.500000
vt 0.666667 0.500000
vt 0.583333 0.500000
vt 0.500000 0.500000
vt 0.416667 0.500000
vt 0.333333 0.500000
vt 0.250000 0.500000
vt 0.166667 0.500000
vt 0.083333 0.500000
vt 0.000000 0.500000
vt 0.083333 0.625353
vt 0.000000 0.549351
vt 0.166667 0.625353
vt 0.166667 0.549351
vt 0.250000 0.625353
vt 0.333333 0.625353
vt 0.416667 0.625353
vt 0.583333 0.625353
vt 0.666667 0.625353
vt 0.750000 0.625353
vt 0.833333 0.549351
vt 0.833333 0.625353
vt 0.916667 0.625353
vt 0.000000 0.938280
vt 0.000000 0.625353
vt 0.166667 0.938280
vt 0.250000 0.938280
vt 0.416667 0.938280
vt 0.500000 0.938280
vt 0.500000 0.625353
vt 0.583333 0.938280
vt 0.666667 0.938279
vt 0.750000 0.938280
vt 0.833333 0.938280
vt 0.916667 0.938280
vt 1.000000 0.625353
vt 0.083333 0.938280
vt 0.333333 0.938279
vt 0.666667 0.938280
vt 1.000000 0.938280
vt 0.250000 0.250000
vt 0.457846 0.370000
vt 0.490000 0.250000
vt 0.250000 0.010000
vt 0.130000 0.042154
vt 0.042154 0.130000
vt 0.010000 0.250000
vt 0.042154 0.370000
vt 0.130000 0.457846
vt 0.333333 0.938279
s 1
f 1/1/1 2/2/1 4/3/1
f 3/4/2 103/5/3 5/5/4
f 74/6/5 5/5/4 75/7/6
f 1/1/1 4/3/1 6/8/1
f 91/9/7 121/10/7 122/9/7
f 75/7/6 7/11/8 76/12/9
f 1/1/1 6/8/1 8/13/1
f 88/14/10 99/15/10 87/15/10
f 76/12/9 9/16/11 77/17/12
f 1/1/1 8/13/1 10/18/1
f 23/19/13 101/20/7 25/20/14
f 77/17/12 11/21/15 78/22/16
f 1/1/1 10/18/1 12/23/1
f 3/24/17 98/20/17 87/24/17
f 78/22/16 13/25/18 79/26/19
f 1/1/1 12/23/1 14/27/1
f 5/5/17 89/11/17 7/11/17
f 79/26/19 15/28/20 80/29/21
f 1/1/1 14/27/1 16/30/1
f 11/21/17 90/16/17 91/21/17
f 15/28/20 81/31/22 80/29/21
f 1/1/1 16/30/1 18/32/1
f 15/28/17 92/25/17 93/28/17
f 17/33/23 82/34/24 81/31/22
f 1/1/1 18/32/1 20/35/1
f 17/33/17 95/36/17 19/36/17
f 19/36/25 83/37/26 82/34/24
f 1/1/1 20/35/1 22/38/1
f 21/39/17 97/19/17 23/19/17
f 21/39/27 84/40/28 83/37/26
f 1/1/1 22/38/1 24/41/1
f 98/20/29 101/20/29 102/20/29
f 23/19/13 85/42/30 84/40/28
f 1/1/1 24/41/1 2/2/1
f 11/21/15 113/25/31 13/25/18
f 25/20/14 74/43/5 85/42/30
f 37/44/32 49/45/33 48/46/32
f 47/47/34 37/44/32 48/46/32
f 35/48/35 47/47/34 46/49/35
f 34/50/36 46/49/35 45/51/36
f 33/52/37 45/51/36 44/53/37
f 32/54/38 44/53/37 43/55/38
f 42/56/39 32/54/38 43/55/38
f 41/57/40 31/58/39 42/56/39
f 40/59/41 30/60/40 41/57/40
f 39/61/42 29/62/41 40/59/41
f 27/63/43 39/61/42 38/64/43
f 26/65/33 38/64/43 49/66/33
f 2/67/44 38/64/45 4/68/45
f 4/68/45 39/61/46 6/69/46
f 39/61/46 8/70/47 6/69/46
f 40/59/47 10/71/48 8/70/47
f 41/57/48 12/72/49 10/71/48
f 42/56/49 14/73/50 12/72/49
f 43/55/50 16/74/51 14/73/50
f 16/74/51 45/51/52 18/75/52
f 18/75/52 46/49/53 20/76/53
f 46/49/53 22/77/54 20/76/53
f 47/47/54 24/78/55 22/77/54
f 48/46/55 2/79/44 24/78/55
f 61/80/56 26/81/57 37/44/56
f 60/82/58 37/44/56 36/83/58
f 59/84/59 36/83/58 35/48/59
f 34/50/60 59/84/59 35/48/59
f 33/52/61 58/85/60 34/50/60
f 32/54/62 57/86/61 33/52/61
f 55/87/63 32/54/62 31/58/63
f 54/88/64 31/58/63 30/60/64
f 53/89/65 30/60/64 29/62/65
f 28/90/66 53/89/65 29/62/65
f 27/63/67 52/91/66 28/90/66
f 26/65/57 51/92/67 27/63/67
f 61/80/68 69/93/69 50/94/69
f 68/95/70 61/80/68 60/82/70
f 72/96/71 60/82/70 59/84/71
f 58/85/72 72/96/71 59/84/71
f 71/97/73 58/85/72 57/86/73
f 66/98/74 57/86/73 56/99/74
f 70/100/75 56/99/74 55/87/75
f 65/101/76 55/87/75 54/88/76
f 64/102/77 54/88/76 53/89/77
f 63/103/78 53/89/77 52/91/78
f 62/104/79 52/91/78 51/92/79
f 50/105/69 62/104/79 51/92/79
f 73/106/80 74/43/81 69/93/81
f 68/95/82 85/42/80 73/106/80
f 72/96/83 84/40/82 68/95/82
f 82/34/84 72/96/83 67/107/84
f 81/31/85 67/107/84 71/97/85
f 80/29/86 71/97/85 66/98/86
f 70/100/87 80/29/86 66/98/86
f 65/108/88 79/26/87 70/100/87
f 77/17/89 65/108/88 64/102/89
f 76/12/90 64/102/89 63/103/90
f 75/7/91 63/103/90 62/104/91
f 74/6/81 62/104/91 69/109/81
f 86/110/17 88/14/17 87/15/17
f 86/110/17 89/111/17 88/14/17
f 86/110/17 90/112/17 89/111/17
f 86/110/17 91/9/17 90/112/17
f 86/110/17 92/10/17 91/9/17
f 86/110/17 93/113/17 92/10/17
f 86/110/17 94/114/17 93/113/17
f 86/110/17 95/115/17 94/114/17
f 86/110/17 96/116/17 95/115/17
f 86/110/17 97/117/17 96/116/17
f 86/110/17 98/118/17 97/117/17
f 86/110/17 87/15/17 98/118/17
f 106/28/17 112/33/17 111/33/17
f 110/36/17 118/39/17 117/39/17
f 100/4/17 104/5/17 103/5/17
f 101/20/17 115/19/17 102/20/17
f 107/16/17 120/11/17 119/16/17
f 113/25/17 122/21/17 121/25/17
f 95/36/92 110/36/92 19/36/92
f 96/39/93 117/39/93 118/39/93
f 95/115/94 118/116/94 109/115/94
f 92/25/95 113/25/95 121/25/95
f 15/28/20 111/33/10 17/33/23
f 93/28/96 106/28/96 15/28/96
f 97/19/97 116/19/97 23/19/97
f 89/11/98 108/11/98 7/11/98
f 90/112/99 120/111/99 89/111/99
f 7/11/8 107/16/94 9/16/11
f 94/114/3 105/113/3 93/113/3
f 19/36/25 117/39/99 21/39/27
f 98/118/31 115/117/31 97/117/31
f 88/5/100 103/5/100 104/5/100
f 94/33/101 111/33/101 112/33/101
f 87/24/102 100/24/102 3/24/102
f 90/16/103 107/16/103 119/16/103
f 91/21/104 114/21/104 11/21/104
f 3/4/2 100/4/3 103/5/3
f 74/6/5 3/4/2 5/5/4
f 91/9/7 92/10/7 121/10/7
f 75/7/6 5/5/4 7/11/8
f 88/14/10 104/14/10 99/15/10
f 76/12/9 7/11/8 9/16/11
f 23/19/13 116/19/7 101/20/7
f 77/17/12 9/16/11 11/21/15
f 3/24/17 25/20/17 98/20/17
f 78/22/16 11/21/15 13/25/18
f 5/5/17 88/5/17 89/11/17
f 79/26/19 13/25/18 15/28/20
f 11/21/17 9/16/17 90/16/17
f 15/28/20 17/33/23 81/31/22
f 15/28/17 13/25/17 92/25/17
f 17/33/23 19/36/25 82/34/24
f 17/33/17 94/33/17 95/36/17
f 19/36/25 21/39/27 83/37/26
f 21/39/17 96/39/17 97/19/17
f 21/39/27 23/19/13 84/40/28
f 98/20/29 25/20/29 101/20/29
f 23/19/13 25/20/14 85/42/30
f 11/21/15 114/21/31 113/25/31
f 25/20/14 3/24/2 74/43/5
f 37/44/32 26/81/33 49/45/33
f 47/47/34 36/83/34 37/44/32
f 35/48/35 36/83/34 47/47/34
f 34/50/36 35/48/35 46/49/35
f 33/52/37 34/50/36 45/51/36
f 32/54/38 33/52/37 44/53/37
f 42/56/39 31/58/39 32/54/38
f 41/57/40 30/60/40 31/58/39
f 40/59/41 29/62/41 30/60/40
f 39/61/42 28/90/42 29/62/41
f 27/63/43 28/90/42 39/61/42
f 26/65/33 27/63/43 38/64/43
f 2/67/44 49/66/44 38/64/45
f 4/68/45 38/64/45 39/61/46
f 39/61/46 40/59/47 8/70/47
f 40/59/47 41/57/48 10/71/48
f 41/57/48 42/56/49 12/72/49
f 42/56/49 43/55/50 14/73/50
f 43/55/50 44/53/51 16/74/51
f 16/74/51 44/53/51 45/51/52
f 18/75/52 45/51/52 46/49/53
f 46/49/53 47/47/54 22/77/54
f 47/47/54 48/46/55 24/78/55
f 48/46/55 49/45/44 2/79/44
f 61/80/56 50/94/57 26/81/57
f 60/82/58 61/80/56 37/44/56
f 59/84/59 60/82/58 36/83/58
f 34/50/60 58/85/60 59/84/59
f 33/52/61 57/86/61 58/85/60
f 32/54/62 56/99/62 57/86/61
f 55/87/63 56/99/62 32/54/62
f 54/88/64 55/87/63 31/58/63
f 53/89/65 54/88/64 30/60/64
f 28/90/66 52/91/66 53/89/65
f 27/63/67 51/92/67 52/91/66
f 26/65/57 50/105/57 51/92/67
f 61/80/68 73/106/68 69/93/69
f 68/95/70 73/106/68 61/80/68
f 72/96/71 68/95/70 60/82/70
f 58/85/72 67/119/72 72/96/71
f 71/97/73 67/119/72 58/85/72
f 66/98/74 71/97/73 57/86/73
f 70/100/75 66/98/74 56/99/74
f 65/101/76 70/100/75 55/87/75
f 64/102/77 65/101/76 54/88/76
f 63/103/78 64/102/77 53/89/77
f 62/104/79 63/103/78 52/91/78
f 50/105/69 69/109/69 62/104/79
f 73/106/80 85/42/80 74/43/81
f 68/95/82 84/40/82 85/42/80
f 72/96/83 83/37/83 84/40/82
f 82/34/84 83/37/83 72/96/83
f 81/31/85 82/34/84 67/107/84
f 80/29/86 81/31/85 71/97/85
f 70/100/87 79/26/87 80/29/86
f 65/108/88 78/22/88 79/26/87
f 77/17/89 78/22/88 65/108/88
f 76/12/90 77/17/89 64/102/89
f 75/7/91 76/12/90 63/103/90
f 74/6/81 75/7/91 62/104/91
f 106/28/17 105/28/17 112/33/17
f 110/36/17 109/36/17 118/39/17
f 100/4/17 99/4/17 104/5/17
f 101/20/17 116/19/17 115/19/17
f 107/16/17 108/11/17 120/11/17
f 113/25/17 114/21/17 122/21/17
f 95/36/92 109/36/92 110/36/92
f 96/39/93 21/39/93 117/39/93
f 95/115/94 96/116/94 118/116/94
f 92/25/95 13/25/95 113/25/95
f 15/28/20 106/28/10 111/33/10
f 93/28/96 105/28/96 106/28/96
f 97/19/97 115/19/97 116/19/97
f 89/11/98 120/11/98 108/11/98
f 90/112/99 119/112/99 120/111/99
f 7/11/8 108/11/94 107/16/94
f 94/114/3 112/114/3 105/113/3
f 19/36/25 110/36/99 117/39/99
f 98/118/31 102/118/31 115/117/31
f 88/5/100 5/5/100 103/5/100
f 94/33/101 17/33/101 111/33/101
f 87/24/102 99/24/102 100/24/102
f 90/16/103 9/16/103 107/16/103
f 91/21/104 122/21/104 114/21/104
